<svg width="20" height="20" viewBox="0 0 20 20" fill="none" xmlns="http://www.w3.org/2000/svg">
<g id="Group 1">
<g id="Group 5">
<path id="Vector 2" d="M11 7.00831C7.8 13.8083 3 11.5083 1 9.50831C4.6 21.9083 12.1667 15.3416 15.5 10.5083C15.3333 6.50831 14.2 0.208312 11 7.00831Z" fill="#D9D9D9"/>
<path id="Vector" d="M8.50131 6.38908C8.28338 6.23342 8.13744 6.06436 8.06349 5.8819C7.98954 5.69943 7.98019 5.52186 8.03544 5.34917C8.09069 5.17649 8.20357 5.01845 8.37408 4.87505C8.5446 4.73166 8.76632 4.62779 9.03925 4.56344C10.1497 4.29582 11.2264 4.0277 12.2694 3.75909C13.3124 3.49048 14.306 3.25137 15.2501 3.04177C15.5044 2.98766 15.758 2.98612 16.0109 3.03715C16.2639 3.08817 16.4932 3.1842 16.6989 3.32522C16.9046 3.46624 17.0763 3.63897 17.214 3.8434C17.3517 4.04783 17.4314 4.26981 17.4533 4.50934C17.5067 5.05427 17.5657 5.61505 17.6305 6.19169L17.8474 7.9377C17.9122 8.51434 17.9793 9.08378 18.0486 9.64603C18.118 10.2083 18.1737 10.746 18.2157 11.2592C18.2375 11.4988 18.2101 11.7119 18.1334 11.8988C18.0567 12.0856 17.9484 12.2292 17.8086 12.3297C17.6687 12.4302 17.5043 12.4777 17.3152 12.4723C17.1261 12.4669 16.9301 12.3918 16.7272 12.2468C16.4642 12.059 16.1002 11.8019 15.6353 11.4757C15.1703 11.1495 14.6635 10.7905 14.115 10.3987L8.50131 6.38908Z" fill="#D9D9D9"/>
</g>
</g>
</svg>
