<svg width="22" height="22" viewBox="0 0 22 22" fill="none" xmlns="http://www.w3.org/2000/svg">
<g id="icon/&#233;&#166;&#150;&#233;&#161;&#181;/&#232;&#175;&#132;&#233;&#128;&#154;&#231;&#159;&#165;" clip-path="url(#clip0_415_69966)">
<path id="Vector" d="M8.25579 19.7694H12.1669C12.1669 20.845 11.2869 21.725 10.2113 21.725C9.13579 21.725 8.25579 20.845 8.25579 19.7694ZM18.7874 17.59C18.9308 17.7333 19.0113 17.9278 19.0113 18.1305V18.1305C19.0113 18.4956 18.7153 18.7916 18.3502 18.7916H2.09153C1.71588 18.7916 1.41135 18.4871 1.41135 18.1115V18.1115C1.41135 17.9209 1.48704 17.7382 1.62177 17.6034L3.3669 15.8583V9.99165C3.3669 6.96054 5.32246 4.32054 8.25579 3.44054V3.14721C8.25579 2.07165 9.13579 1.19165 10.2113 1.19165C11.2869 1.19165 12.1669 2.07165 12.1669 3.14721V3.44054C15.1002 4.32054 17.0558 6.96054 17.0558 9.99165V15.8583L18.7874 17.59ZM15.1002 9.99165C15.1002 7.25387 12.9491 5.10276 10.2113 5.10276C7.47357 5.10276 5.32246 7.25387 5.32246 9.99165V16.8361H15.1002V9.99165Z" fill="#DADADB"/>
</g>
<defs>
<clipPath id="clip0_415_69966">
<rect width="22" height="22" fill="white"/>
</clipPath>
</defs>
</svg>
