<svg width="22" height="22" viewBox="0 0 22 22" fill="none" xmlns="http://www.w3.org/2000/svg">
<g id="icon/&#233;&#166;&#150;&#233;&#161;&#181;/&#230;&#144;&#156;&#231;&#180;&#162;">
<g id="icon/&#233;&#166;&#150;&#233;&#161;&#181;/&#230;&#144;&#156;&#231;&#180;&#162;_2">
<path id="Union" fill-rule="evenodd" clip-rule="evenodd" d="M9.62502 0.916504C4.81556 0.916504 0.916687 4.81538 0.916687 9.62484C0.916687 14.4343 4.81556 18.3332 9.62502 18.3332C11.6995 18.3332 13.6047 17.6078 15.1005 16.3968L18.4675 19.7638C18.8255 20.1217 19.4059 20.1217 19.7639 19.7638C20.1219 19.4058 20.1219 18.8254 19.7639 18.4674L16.3969 15.1004C17.6079 13.6045 18.3334 11.6994 18.3334 9.62484C18.3334 4.81538 14.4345 0.916504 9.62502 0.916504ZM2.75002 9.62484C2.75002 5.8279 5.82808 2.74984 9.62502 2.74984C13.422 2.74984 16.5 5.8279 16.5 9.62484C16.5 13.4218 13.422 16.4998 9.62502 16.4998C5.82808 16.4998 2.75002 13.4218 2.75002 9.62484Z" fill="#BCBFC9"/>
</g>
</g>
</svg>
