<svg width="12" height="13" viewBox="0 0 12 13" fill="none" xmlns="http://www.w3.org/2000/svg">
<g id="icon/&#230;&#180;&#187;&#229;&#138;&#168;/&#229;&#143;&#130;&#228;&#184;&#142;&#228;&#186;&#186;&#230;&#149;&#176;" clip-path="url(#clip0_415_80258)">
<path id="Vector" d="M4.75 5.5C5.7165 5.5 6.5 4.7165 6.5 3.75C6.5 2.7835 5.7165 2 4.75 2C3.7835 2 3 2.7835 3 3.75C3 4.7165 3.7835 5.5 4.75 5.5Z" stroke="#6F747E" stroke-linecap="round" stroke-linejoin="round"/>
<path id="Vector_2" d="M8.15186 2.25C8.66006 2.55623 8.99996 3.11343 8.99996 3.75C8.99996 4.38657 8.66006 4.94377 8.15186 5.25" stroke="#6F747E" stroke-linecap="round" stroke-linejoin="round"/>
<path id="Vector_3" d="M1.00049 10.7V11H8.50049V10.7C8.50049 9.5799 8.50049 9.01985 8.28251 8.59202C8.09076 8.2157 7.78479 7.90973 7.40846 7.71798C6.98064 7.5 6.42059 7.5 5.30049 7.5H4.20049C3.08039 7.5 2.52034 7.5 2.09251 7.71798C1.71618 7.90973 1.41022 8.2157 1.21848 8.59202C1.00049 9.01985 1.00049 9.5799 1.00049 10.7Z" stroke="#6F747E" stroke-linecap="round" stroke-linejoin="round"/>
<path id="Vector_4" d="M11.0002 11V10.7C11.0002 9.57992 11.0002 9.01987 10.7823 8.59204C10.5905 8.21572 10.2845 7.90977 9.9082 7.71802" stroke="#6F747E" stroke-linecap="round" stroke-linejoin="round"/>
</g>
<defs>
<clipPath id="clip0_415_80258">
<rect width="12" height="12" fill="white" transform="translate(0 0.5)"/>
</clipPath>
</defs>
</svg>
