<svg width="158" height="26" viewBox="0 0 158 26" fill="none" xmlns="http://www.w3.org/2000/svg">
<g id="Frame 496">
<g id="Frame 495">
<path id="Union" fill-rule="evenodd" clip-rule="evenodd" d="M94.5571 18.0965L98.9691 1.63062H95.2517L90.8396 18.0965H94.5571ZM102.515 7.9199L99.7879 18.097H96.0705L98.7974 7.9199H102.515ZM99.5982 4.01173C99.6726 3.73399 99.7965 3.47609 99.9698 3.23803C100.147 2.98674 100.356 2.76852 100.597 2.58336C100.838 2.3982 101.096 2.25272 101.371 2.14692C101.66 2.04111 101.948 1.98821 102.235 1.98821C102.523 1.98821 102.776 2.04111 102.994 2.14692C103.226 2.25272 103.412 2.3982 103.555 2.58336C103.697 2.76852 103.789 2.98674 103.831 3.23803C103.877 3.47609 103.862 3.73399 103.788 4.01173C103.714 4.28947 103.588 4.55398 103.411 4.80526C103.238 5.04333 103.03 5.25494 102.789 5.44009C102.548 5.62525 102.283 5.77073 101.994 5.87654C101.72 5.98234 101.438 6.03525 101.151 6.03525C100.863 6.03525 100.604 5.98234 100.372 5.87654C100.154 5.77073 99.9737 5.62525 99.8316 5.44009C99.6895 5.25494 99.5956 5.04333 99.5498 4.80526C99.5076 4.55398 99.5237 4.28947 99.5982 4.01173ZM142.953 11.2126C142.423 10.7893 141.829 10.5777 141.172 10.5777C140.816 10.5777 140.464 10.6372 140.118 10.7563C139.784 10.8753 139.471 11.0472 139.178 11.2721C138.889 11.4837 138.635 11.7416 138.417 12.0458C138.215 12.3367 138.065 12.6674 137.966 13.0377C137.87 13.3948 137.843 13.7254 137.885 14.0296C137.944 14.3206 138.053 14.5785 138.212 14.8033C138.388 15.0149 138.617 15.1802 138.9 15.2993C139.183 15.4183 139.503 15.4778 139.859 15.4778C140.557 15.4778 141.27 15.2464 141.996 14.7835L141.177 17.8386C140.157 18.2221 139.236 18.4139 138.415 18.4139C137.648 18.4139 136.949 18.2883 136.318 18.037C135.701 17.7857 135.187 17.4286 134.777 16.9657C134.385 16.4896 134.118 15.9275 133.976 15.2794C133.839 14.6182 133.878 13.8841 134.094 13.0774C134.31 12.2706 134.658 11.5366 135.136 10.8753C135.618 10.2008 136.183 9.62548 136.831 9.14936C137.482 8.66001 138.199 8.28308 138.982 8.01857C139.782 7.74083 140.593 7.60196 141.415 7.60196C142.318 7.60196 143.104 7.78712 143.771 8.15744L142.953 11.2126ZM144.928 7.9199H148.645L148.3 9.2094C148.966 8.61424 149.586 8.21747 150.159 8.01909C150.736 7.80748 151.374 7.70167 152.072 7.70167C152.812 7.70167 153.41 7.82071 153.866 8.05877C154.34 8.2836 154.705 8.60763 154.961 9.03085C155.17 9.37472 155.273 9.75826 155.269 10.1815C155.265 10.6047 155.19 11.0874 155.045 11.6297L153.312 18.097H149.595L150.972 12.9589C151.106 12.4563 151.173 12.0529 151.173 11.7487C151.189 11.4313 151.126 11.18 150.984 10.9949C150.863 10.8361 150.708 10.7237 150.52 10.6576C150.333 10.5915 150.122 10.5584 149.89 10.5584C149.26 10.5584 148.724 10.7436 148.283 11.1139C147.858 11.471 147.556 11.9868 147.375 12.6613L145.919 18.097H142.201L144.928 7.9199ZM127.956 15.2993C127.758 15.5771 127.617 15.8746 127.532 16.1921C127.447 16.5095 127.427 16.8137 127.472 17.1046C127.521 17.3824 127.627 17.627 127.789 17.8386C127.952 18.0503 128.161 18.2156 128.416 18.3346C128.686 18.4536 128.985 18.5132 129.313 18.5132C129.642 18.5132 129.966 18.4536 130.285 18.3346C130.618 18.2156 130.923 18.0503 131.199 17.8386C131.474 17.627 131.711 17.3824 131.909 17.1046C132.11 16.8137 132.253 16.5095 132.338 16.1921C132.423 15.8746 132.441 15.5771 132.392 15.2993C132.347 15.0084 132.243 14.7571 132.081 14.5455C131.919 14.3339 131.703 14.1685 131.433 14.0495C131.178 13.9305 130.886 13.871 130.557 13.871C130.228 13.871 129.898 13.9305 129.564 14.0495C129.245 14.1685 128.947 14.3339 128.672 14.5455C128.396 14.7571 128.157 15.0084 127.956 15.2993ZM118.74 12.9589C118.652 13.2896 118.63 13.6004 118.675 13.8913C118.724 14.1691 118.823 14.4137 118.972 14.6253C119.134 14.837 119.343 15.0023 119.599 15.1213C119.868 15.2403 120.174 15.2999 120.516 15.2999C120.845 15.2999 121.169 15.2403 121.488 15.1213C121.821 15.0023 122.119 14.837 122.381 14.6253C122.657 14.4137 122.894 14.1691 123.091 13.8913C123.306 13.6004 123.456 13.2962 123.541 12.9788C123.63 12.6481 123.643 12.3439 123.58 12.0662C123.531 11.7884 123.426 11.5438 123.263 11.3322C123.101 11.1206 122.885 10.9552 122.616 10.8362C122.36 10.7172 122.075 10.6577 121.76 10.6577C121.431 10.6577 121.106 10.7238 120.783 10.856C120.463 10.9751 120.166 11.1404 119.89 11.352C119.618 11.5504 119.376 11.7884 119.165 12.0662C118.967 12.3439 118.826 12.6415 118.74 12.9589ZM128.429 7.91996L125.888 17.4027C125.736 17.9714 125.565 18.4806 125.376 18.9303C125.187 19.38 124.985 19.7767 124.77 20.1206C124.489 20.557 124.12 20.9604 123.665 21.3307C123.22 21.7143 122.714 22.0449 122.146 22.3227C121.579 22.6004 120.959 22.8186 120.287 22.9773C119.628 23.136 118.936 23.2154 118.21 23.2154C117.389 23.2154 116.662 23.1162 116.031 22.9178C115.399 22.7194 114.871 22.4417 114.447 22.0846C114.032 21.7407 113.725 21.3307 113.524 20.8546C113.319 20.3917 113.236 19.8825 113.276 19.3271H117.465C117.545 20.0016 118.043 20.3388 118.961 20.3388C119.741 20.3388 120.393 20.1272 120.918 19.704C121.455 19.2808 121.825 18.6922 122.027 17.9384L122.288 16.9663C121.947 17.2176 121.623 17.4292 121.317 17.6011C121.028 17.7598 120.739 17.8921 120.45 17.9979C120.162 18.1037 119.869 18.1764 119.57 18.2161C119.269 18.269 118.947 18.2955 118.604 18.2955C117.851 18.2955 117.194 18.1698 116.631 17.9185C116.069 17.6672 115.615 17.3168 115.27 16.8671C114.938 16.4174 114.726 15.8818 114.632 15.2602C114.556 14.6253 114.621 13.9244 114.826 13.1573C115.035 12.377 115.365 11.6562 115.816 10.9949C116.271 10.3204 116.797 9.73848 117.393 9.24913C118.007 8.74656 118.673 8.3564 119.391 8.07866C120.126 7.7877 120.877 7.64222 121.644 7.64222C122.89 7.64222 123.817 8.09189 124.425 8.99123L124.712 7.91996H128.429ZM107.746 7.9199H104.028L101.301 18.097H105.019L106.475 12.6613C106.656 11.9868 106.958 11.471 107.383 11.1139C107.824 10.7436 108.36 10.5584 108.99 10.5584C109.222 10.5584 109.433 10.5915 109.62 10.6576C109.808 10.7237 109.963 10.8361 110.085 10.9949C110.227 11.18 110.289 11.4313 110.273 11.7487C110.273 12.0529 110.206 12.4563 110.072 12.9589L108.695 18.097H112.412L114.145 11.6297C114.291 11.0874 114.365 10.6047 114.369 10.1815C114.373 9.75826 114.27 9.37472 114.061 9.03085C113.805 8.60763 113.44 8.2836 112.966 8.05877C112.51 7.82071 111.912 7.70167 111.172 7.70167C110.474 7.70167 109.836 7.80748 109.259 8.01909C108.686 8.21747 108.066 8.61424 107.4 9.2094L107.746 7.9199ZM85.0262 7.9199H88.7436L88.2971 9.58633C88.8572 8.97795 89.4673 8.51505 90.1274 8.19764C90.7911 7.86699 91.5063 7.70167 92.2731 7.70167H92.5811C92.7044 7.70167 92.8377 7.7149 92.9813 7.74135L92.0616 11.1734C91.6325 10.9353 91.1304 10.8163 90.5553 10.8163C89.6927 10.8163 88.975 11.0676 88.4022 11.5702C87.8466 12.0595 87.4413 12.7803 87.1861 13.7326L86.0167 18.097H82.2992L85.0262 7.9199ZM73.6825 13.9106C73.6372 13.6196 73.6589 13.3088 73.7475 12.9782C73.8325 12.6608 73.9721 12.3698 74.1662 12.1053C74.3639 11.8275 74.5937 11.5829 74.8558 11.3713C75.1316 11.1597 75.4292 10.9943 75.7486 10.8753C76.0817 10.7563 76.4195 10.6968 76.7618 10.6968C77.0904 10.6968 77.3825 10.7563 77.6381 10.8753C77.9075 10.9943 78.1165 11.1597 78.2652 11.3713C78.4275 11.5829 78.5314 11.8342 78.5766 12.1251C78.6391 12.4029 78.6278 12.7004 78.5428 13.0179C78.4577 13.3353 78.3096 13.6328 78.0982 13.9106C77.9006 14.1883 77.6638 14.433 77.3881 14.6446C77.126 14.8562 76.8284 15.0215 76.4953 15.1406C76.1758 15.2596 75.8518 15.3191 75.5232 15.3191C75.1809 15.3191 74.8751 15.2596 74.6057 15.1406C74.3501 15.0215 74.1411 14.8562 73.9787 14.6446C73.83 14.433 73.7313 14.1883 73.6825 13.9106ZM83.5237 7.91938H79.7857L79.5146 8.93114C78.8894 8.04502 77.9196 7.60196 76.6052 7.60196C75.8247 7.60196 75.0737 7.74745 74.3522 8.03841C73.6343 8.31615 72.977 8.69969 72.3803 9.18904C71.7837 9.67839 71.2667 10.2537 70.8293 10.915C70.3956 11.563 70.0812 12.2508 69.8863 12.9782C69.6772 13.7585 69.6141 14.4793 69.6971 15.1406C69.7938 15.8018 70.0161 16.3772 70.3642 16.8665C70.7123 17.3559 71.171 17.7394 71.7401 18.0171C72.3127 18.2817 72.9824 18.4139 73.7492 18.4139C75.1047 18.4139 76.3089 17.9312 77.3617 16.9657L77.0587 18.0965H80.7967L83.5237 7.91938ZM59.969 6.7993L57.7617 14.3985H61.262C62.9257 14.3985 65.1516 13.7574 65.7831 11.7276C66.5913 9.12954 64.7163 6.7993 62.155 6.7993H59.969ZM61.262 18.0926C64.5432 18.0926 68.2144 16.348 69.3104 12.8249C70.9161 7.66366 67.2065 3.10522 62.155 3.10522H57.1952L52.842 18.0926H61.262ZM29.5461 19.4831L30.5804 15.6233C29.6836 15.9786 28.7388 16.1767 27.7991 16.1767L28.7532 12.6159C30.1996 12.6159 31.6754 11.4895 32.0616 10.0953L32.2518 9.38534C32.2821 9.21236 32.3208 9.03718 32.3682 8.86015L32.5885 8.03798H29.7166L30.6707 4.47723H33.5426L34.156 2.18806H34.1803H34.1804H37.8424H37.8667H37.8668L37.2534 4.47723H39.6233L38.6692 8.03798H36.2993L35.9918 9.18569C35.8663 10.2627 36.6051 11.0897 37.7655 11.0895L36.8117 14.6503C36.0029 14.6504 35.2729 14.4957 34.644 14.2153L33.2325 19.4831H29.5461ZM38.8372 9.0553L37.4785 14.1262C37.2015 15.1602 36.6499 16.1762 35.8783 17.0738L38.6056 18.8405C39.8396 17.4048 40.7218 15.7798 41.1648 14.1262L42.5236 9.0553H38.8372ZM49.5909 14.1262L50.9497 9.0553H47.2633L45.9046 14.1262C45.4615 15.7798 45.4729 17.4048 45.9375 18.8405L49.6115 17.0738C49.321 16.1762 49.3139 15.1602 49.5909 14.1262ZM46.746 8.03798H50.9588L51.9129 4.47723H47.7001L48.3135 2.18806H45.1538L44.5404 4.47723H40.3272L39.3731 8.03798H43.5863L40.5196 19.4831H43.6793L46.746 8.03798ZM15.5748 6.25766L15.7792 5.49478H13.9361L14.6176 2.95139H16.4607L16.6652 2.18824L20.3516 2.18824L20.1471 2.95139H24.3599L24.5644 2.18824L28.2507 2.18824L28.0462 2.95139H29.363L28.6815 5.49478H27.3647L27.1603 6.25766H23.474L23.6784 5.49478H19.4656L19.2612 6.25766H15.5748ZM7.86123 7.5292H6.0182L6.97229 3.96845H8.81533L9.29233 2.18824L12.4521 2.18824L11.9751 3.96845H13.8184L12.8643 7.5292H11.021L10.389 9.88757H12.2412L11.2871 13.4483H9.43493L8.63567 16.4312C8.18401 18.1168 6.40321 19.4833 4.65814 19.4833L2.81497 19.4833L3.63277 16.4312H5.47594L6.2752 13.4483H4.44101L5.39511 9.88757H7.2293L7.86123 7.5292ZM12.3542 13.3753L11.2628 17.4485H11.2597L10.7145 19.4832H24.4067L24.9519 17.4485H24.9485L26.0389 13.3791H22.3525L21.2621 17.4485H14.9492L15.4944 15.4138L21.284 15.4138L21.8292 13.3791L16.0396 13.3791L16.0406 13.3753H12.3542ZM17.449 10.0726C18.5501 10.0726 19.6633 9.60633 20.5368 8.8671C21.0142 9.60633 21.8776 10.0726 22.9786 10.0726H27.1915L27.873 7.52918H23.6601C23.0784 7.52918 22.7289 7.07369 22.8794 6.51182H22.0895H20.2463H19.4564C19.3058 7.07369 18.7122 7.52918 18.1305 7.52918H13.9176L13.2361 10.0726H17.449ZM26.2467 12.6159H12.5546L13.0998 10.5812H26.7919L26.2467 12.6159Z" fill="url(#paint0_linear_415_69924)"/>
</g>
</g>
<defs>
<linearGradient id="paint0_linear_415_69924" x1="59.0809" y1="8.21168" x2="59.1678" y2="18.3982" gradientUnits="userSpaceOnUse">
<stop stop-color="white"/>
<stop offset="0.325" stop-color="#EEEEEE"/>
<stop offset="0.940298" stop-color="#ABABAB"/>
</linearGradient>
</defs>
</svg>
